<svg width="100" height="29" viewBox="0 0 100 29" fill="none" xmlns="http://www.w3.org/2000/svg">
<path d="M0 0V29H99.9175V0H0ZM29.0711 23.042H23.8304V15.8971C23.8304 13.7014 23.1111 12.8597 21.6971 12.8597C19.9786 12.8597 19.2839 14.0969 19.2839 15.8717V20.2833H20.9479V23.042H15.7121V15.8971C15.7121 13.7014 14.9925 12.8597 13.5789 12.8597C11.8604 12.8597 11.1657 14.0969 11.1657 15.8717V20.2833H13.5489V23.042H5.93V20.2833H7.59357V13.108H5.93V10.3494H11.1657V12.2612C11.915 10.9123 13.2189 10.096 14.9625 10.096C16.7661 10.096 18.4246 10.9682 19.0393 12.8242C19.7336 11.1356 21.1475 10.096 23.1161 10.096C25.3589 10.096 27.4125 11.4753 27.4125 14.4822V20.2833H29.0761V23.042H29.0711ZM37.1393 23.3207C33.2875 23.3207 30.6246 20.9322 30.6246 16.8809C30.6246 13.1689 32.8429 10.1011 37.3343 10.1011C41.8254 10.1011 44.0136 13.1638 44.0136 16.7084C44.0136 20.76 41.1311 23.3207 37.1393 23.3207ZM57.2979 23.042H46.3768L46.0171 21.1301L52.8914 13.1131H48.9846L48.43 15.0807L45.8521 14.7965L46.2968 10.3494H57.2729L57.5525 12.2612L50.6182 20.2833H54.665L55.2493 18.3157L58.0771 18.5948L57.2979 23.042ZM64.4318 23.042H60.69V18.4832H64.4318V23.042ZM64.4318 14.9082H60.69V10.3494H64.4318V14.9082ZM66.77 23.042L72.1754 3.68663H75.6975L70.2921 23.042H66.77ZM74.0339 23.042L79.4343 3.68663H82.9564L77.5511 23.042H74.0339ZM93.2182 23.3207C91.5546 23.3207 90.6404 22.3369 90.4754 20.7905C89.7561 22.0835 88.4821 23.3207 86.4586 23.3207C84.655 23.3207 82.6068 22.3369 82.6068 19.6899C82.6068 16.5663 85.5743 15.8362 88.4271 15.8362C89.1214 15.8362 89.8407 15.8666 90.4804 15.9478V15.527C90.4804 14.2339 90.4504 12.6871 88.4271 12.6871C87.6775 12.6871 87.0982 12.743 86.5136 13.0522L86.1089 14.4822L83.2564 14.173L83.7461 11.252C85.9339 10.3494 87.0432 10.1011 89.0964 10.1011C91.7843 10.1011 94.0575 11.5058 94.0575 14.4061V19.9183C94.0575 20.6484 94.3371 20.9018 94.9168 20.9018C95.0814 20.9018 95.2514 20.8713 95.4414 20.8158L95.4711 22.7273C94.7968 23.0974 93.9925 23.3207 93.2182 23.3207Z" fill="white"/>
</svg>
