<svg viewBox="0 0 162 34.65627" xmlns="http://www.w3.org/2000/svg"><g fill="#fff"><path d="m161.94178 30.20952c-.34983.09947-.65182.15094-.95036.15094-1.05354 0-1.55436-.44948-1.55436-1.74645v-9.78224c0-5.14335-4.11386-7.63777-8.9758-7.63776-3.71274 0-5.71663.44948-9.67949 2.0484l-.88178 5.17758 5.16739.54901.73079-2.53223c1.05353-.54896 2.10649-.64849 3.45857-.64849 3.66085 0 3.71272 2.74495 3.71272 5.04042v.74796c-1.15324-.15094-2.4569-.199-3.71272-.199-5.16393 0-10.53015 1.29698-10.53015 6.83834 0 4.69381 3.71215 6.44026 6.97188 6.44026 3.66085 0 5.96675-2.19594 7.27446-4.49135.30141 2.74489 1.95548 4.49134 4.96451 4.49134 1.40337 0 2.85803-.39801 4.06256-1.0499l-.05131-3.39344-.00691-.0034zm-13.89303-.15099c-1.95549 0-2.65919-1.14943-2.65919-2.59741 0-2.44641 2.00735-3.0949 4.31326-3.0949 1.05354 0 2.2062.151 3.25973.29854-.15099 3.74338-2.60789 5.39037-4.9138 5.39037z"/><path d="m139.26429 0-9.75093 34.24605h-6.35059s9.7515-34.24605 9.7515-34.24605zm-13.10059 0-9.7515 34.24605h-6.35059s9.7515-34.24604 9.7515-34.24604h6.35059z"/><path d="m99.08363 11.73602h6.75057s0 8.06454 0 8.06454h-6.75057s0-8.06454 0-8.06454zm0 14.38407h6.75057s0 8.06454 0 8.06454h-6.75057s0-8.06454 0-8.06454z"/><path d="m89.21801 25.96178 5.11551.49754-1.40682 7.88824h-19.75663s-.65183-3.39683-.65183-3.39683l12.43492-14.22564h-7.06871s-1.00511 3.49637-1.00511 3.49637l-4.6631-.50094.80283-7.88824h19.8598s.50083 3.39682.50083 3.39682l-12.5375 14.22564h7.32229s1.05353-3.49297 1.05353-3.49297z"/><path d="m56.89446 10.77703c-8.13584 0-12.15223 5.4491-12.15223 12.04578 0 7.19785 4.82033 11.44449 11.80183 11.44448s12.45452-4.54899 12.45451-11.74684c0-6.29774-3.96805-11.74683-12.10411-11.74683v.0034zm-.15099 18.54275c-3.51493 0-5.32213-2.9994-5.32213-6.89897 0-4.25004 2.05802-6.69627 5.37342-6.69628 3.06493 0 5.52471 2.0477 5.52471 6.59662 0 4.2981-2.20907 6.99862-5.57254 6.99862h-.00346z"/><path d="m38.86827 29.32107h3.00914s0 4.89282 0 4.89282h-9.4803s0-12.67812 0-12.67812c0-3.89438-1.30389-5.39037-3.8601-5.39036-3.10861 0-4.36444 2.19594-4.36444 5.3423v7.83677h3.00915s0 4.89287 0 4.89287h-9.4769s0-12.67818 0-12.67818c0-3.89438-1.30384-5.39036-3.8635-5.39036-3.10861 0-4.36444 2.19594-4.36444 5.34236v7.83677s4.31298 0 4.31298 0v4.89282s-13.78984 0-13.78984 0v-4.89282s3.00913 0 3.00913 0v-12.72965s-3.00914 0-3.00914 0v-4.89282s9.48032 0 9.48032 0v3.39344c1.3553-2.395 3.7125-3.84292 6.86918-3.84292s6.26875 1.54744 7.37358 4.84135c1.25237-2.99542 3.81202-4.84135 7.37358-4.84136 4.0625 0 7.775 2.4464 7.775 7.7853v10.28318s-.0034-.0034-.0034-.0034z"/></g></svg>